<?xml version="1.0" standalone="no"?>
<!DOCTYPE svg PUBLIC "-//W3C//DTD SVG 20010904//EN"
 "http://www.w3.org/TR/2001/REC-SVG-20010904/DTD/svg10.dtd">
<svg version="1.0" xmlns="http://www.w3.org/2000/svg"
 width="3840.000000pt" height="2160.000000pt" viewBox="0 0 3840.000000 2160.000000"
 preserveAspectRatio="xMidYMid meet">

<g transform="translate(0.000000,2160.000000) scale(0.100000,-0.100000)"
fill="#000000" stroke="none">
<path d="M17426 15708 c3 -5 10 -6 15 -3 13 9 11 12 -6 12 -8 0 -12 -4 -9 -9z"/>
<path d="M23907 14334 c-1 -1 -87 -5 -190 -8 -104 -3 -192 -8 -196 -10 -3 -2
-40 -7 -81 -10 -41 -4 -115 -11 -165 -17 -49 -6 -106 -12 -125 -14 -19 -1 -51
-5 -70 -9 -19 -3 -46 -8 -60 -10 -14 -3 -50 -10 -80 -16 -30 -6 -70 -13 -89
-16 -18 -3 -43 -8 -55 -11 -78 -18 -114 -26 -137 -28 -14 -2 -36 -8 -47 -14
-12 -6 -25 -10 -29 -9 -4 1 -26 -3 -48 -7 -51 -11 -47 -10 -68 -20 -10 -4 -21
-5 -24 -1 -3 3 -12 1 -20 -6 -8 -6 -24 -12 -36 -13 -12 0 -32 -6 -43 -13 -12
-6 -24 -9 -27 -5 -4 3 -12 1 -19 -4 -7 -6 -26 -13 -43 -16 -35 -6 -54 -12 -75
-20 -49 -21 -159 -54 -164 -49 -3 3 -6 1 -6 -5 0 -9 -40 -24 -75 -27 -5 -1
-17 -6 -25 -11 -8 -5 -19 -10 -25 -10 -12 -1 -43 -13 -65 -24 -9 -5 -31 -12
-50 -16 -19 -4 -70 -25 -114 -46 -44 -22 -81 -37 -84 -34 -3 3 -12 -1 -20 -7
-7 -7 -23 -14 -35 -15 -12 -2 -30 -11 -40 -21 -11 -9 -21 -16 -23 -14 -2 1
-25 -6 -50 -18 -26 -11 -50 -20 -55 -20 -5 0 -9 -4 -9 -10 0 -5 -7 -10 -17
-10 -9 0 -36 -11 -60 -25 -23 -14 -43 -23 -43 -21 0 3 -15 -3 -32 -14 -33 -20
-48 -27 -120 -59 -21 -9 -38 -19 -38 -23 0 -5 -9 -8 -19 -8 -11 0 -23 -5 -26
-10 -3 -6 -32 -23 -63 -38 -72 -36 -102 -53 -124 -71 -10 -8 -18 -10 -18 -6 0
5 -10 -1 -22 -12 -21 -19 -39 -30 -108 -65 -14 -7 -27 -15 -30 -19 -3 -3 -17
-12 -31 -20 -14 -8 -43 -25 -65 -39 -21 -14 -39 -23 -39 -20 0 3 -14 -7 -30
-22 -16 -15 -32 -25 -35 -23 -4 3 -26 -12 -49 -31 -22 -20 -41 -32 -41 -27 0
4 -7 0 -14 -10 -8 -10 -21 -20 -29 -21 -15 -2 -46 -23 -106 -72 -54 -43 -156
-110 -183 -120 -10 -3 -18 -12 -18 -19 0 -8 -9 -17 -20 -20 -11 -3 -20 -11
-20 -16 0 -5 -5 -9 -11 -9 -6 0 -16 -6 -23 -12 -7 -7 -25 -22 -40 -33 -27 -20
-49 -38 -93 -75 -12 -11 -40 -31 -63 -46 -22 -15 -40 -31 -40 -35 0 -5 -3 -8
-7 -7 -8 2 -39 -24 -104 -84 -16 -14 -29 -24 -29 -21 0 3 -9 -4 -19 -16 -11
-12 -22 -22 -25 -22 -3 0 -39 -31 -80 -70 -41 -39 -77 -71 -80 -70 -4 1 -38
-31 -76 -70 -39 -39 -70 -69 -70 -67 0 2 -45 -39 -100 -93 -54 -53 -102 -94
-105 -91 -3 3 -5 1 -5 -5 0 -6 -36 -46 -80 -91 -44 -44 -80 -77 -80 -74 0 3
-13 -13 -29 -34 -16 -21 -70 -82 -120 -134 -50 -52 -93 -102 -96 -111 -3 -9
-17 -22 -30 -29 -14 -7 -23 -15 -21 -18 3 -2 -4 -13 -14 -25 -129 -154 -196
-233 -202 -235 -5 -2 -8 -9 -8 -17 0 -7 -7 -18 -15 -25 -9 -7 -25 -27 -37 -44
-23 -33 1 -13 150 132 39 39 72 68 72 65 0 -2 12 10 27 29 15 18 36 39 46 46
9 7 50 46 91 85 40 40 95 90 121 112 26 22 67 58 90 80 88 82 114 103 119 97
3 -3 6 2 6 11 0 9 4 17 10 17 5 0 32 21 61 48 28 26 56 46 61 44 5 -1 7 2 3 8
-3 5 -3 10 2 10 4 0 22 14 40 30 18 17 36 30 41 30 6 0 12 7 16 15 3 8 11 15
18 15 7 0 33 20 58 45 25 24 50 44 56 45 6 0 20 10 31 23 26 28 66 62 75 62 3
0 15 9 25 21 10 11 40 36 68 55 27 18 61 44 75 57 13 12 30 22 37 22 7 0 13 3
13 8 0 4 17 18 38 32 20 14 41 31 45 38 5 7 12 10 18 7 5 -4 9 -1 9 4 0 6 6
11 14 11 8 0 30 16 50 36 20 20 36 33 36 30 0 -4 10 3 22 14 13 11 43 33 68
47 25 14 48 31 52 37 4 6 8 7 8 1 0 -5 7 1 16 13 8 12 21 22 28 22 7 0 23 9
36 20 13 11 29 20 35 20 7 0 16 7 19 16 4 9 9 14 13 11 3 -4 22 6 42 22 20 15
53 36 74 46 20 9 37 22 37 27 0 5 5 6 10 3 6 -3 10 -1 10 4 0 6 6 11 14 11 8
0 16 5 18 12 2 6 11 12 19 13 8 2 37 18 65 36 27 18 60 40 74 49 14 9 44 25
68 35 23 10 42 23 42 29 0 5 3 6 6 3 4 -4 19 2 34 13 16 11 32 20 38 20 5 0
15 7 22 15 7 8 16 13 20 10 5 -3 10 -1 12 4 1 5 10 11 18 13 8 2 23 11 34 20
10 10 23 15 27 12 4 -2 10 0 13 5 8 12 198 105 210 102 5 -1 12 2 15 7 8 13
175 92 193 92 9 0 21 7 28 15 7 9 19 14 26 11 7 -3 16 -1 19 4 4 6 15 10 26
10 10 0 19 5 19 10 0 6 4 10 10 10 5 0 39 13 75 30 36 16 69 29 73 28 4 -1 18
3 32 9 85 38 181 73 198 73 11 0 22 4 24 8 2 4 44 21 93 36 50 16 115 37 146
47 30 11 63 19 72 19 9 0 17 4 17 8 0 4 14 9 32 10 18 2 35 6 38 10 3 4 12 7
20 7 8 -1 20 1 25 4 6 3 13 6 18 7 4 1 8 2 10 4 1 1 11 3 22 5 45 9 81 17 95
22 8 4 18 6 21 5 4 -1 22 3 40 9 19 6 43 12 54 14 11 2 31 6 45 10 59 15 265
54 315 59 17 2 64 9 105 16 41 6 100 14 130 17 30 2 73 8 96 12 22 4 71 9 110
10 38 1 98 6 134 10 76 9 712 7 727 -2 6 -4 54 -9 106 -11 53 -3 111 -7 129
-10 18 -3 53 -8 78 -10 25 -3 56 -7 70 -10 48 -9 145 -20 159 -19 8 1 26 -3
40 -9 14 -6 40 -12 56 -14 17 -2 53 -8 80 -14 28 -6 68 -13 90 -16 22 -4 45
-10 51 -15 7 -6 16 -9 20 -7 14 3 96 -13 124 -25 14 -5 35 -10 47 -11 12 -1
25 -4 29 -8 4 -5 18 -8 30 -8 13 0 25 -4 28 -9 5 -8 92 -26 109 -23 4 1 7 -2
7 -6 0 -5 6 -9 13 -10 26 -4 53 -9 67 -15 42 -17 126 -41 134 -39 4 2 15 -3
23 -10 8 -6 24 -13 35 -15 12 -2 48 -15 82 -29 33 -14 67 -26 74 -26 6 -1 12
-5 12 -10 0 -5 4 -7 9 -3 5 3 12 1 16 -5 4 -6 11 -8 16 -5 5 4 9 3 9 -2 0 -4
12 -9 26 -10 15 0 29 -5 33 -11 3 -5 24 -15 46 -22 22 -7 52 -19 67 -26 14 -8
33 -14 41 -14 8 0 20 -6 26 -14 7 -8 24 -17 39 -20 25 -6 61 -22 180 -80 23
-12 42 -24 42 -28 0 -5 9 -8 20 -8 10 0 42 -13 70 -30 27 -16 50 -27 50 -24 0
3 12 -3 28 -14 29 -20 59 -33 68 -29 3 1 10 -6 15 -15 6 -10 19 -18 29 -18 10
0 22 -4 25 -10 3 -5 23 -17 43 -27 20 -9 39 -20 42 -24 3 -4 29 -19 58 -32 28
-13 49 -27 45 -31 -3 -3 3 -6 15 -6 12 0 22 -3 22 -7 0 -7 24 -23 144 -92 22
-13 63 -40 91 -60 27 -20 53 -36 58 -36 4 0 11 -5 15 -11 4 -6 17 -14 30 -18
12 -4 22 -12 22 -17 0 -5 6 -9 13 -9 7 0 24 -11 38 -23 13 -13 45 -37 69 -53
25 -16 47 -32 50 -35 3 -3 19 -14 37 -23 18 -9 37 -24 42 -33 6 -10 11 -14 11
-8 0 5 7 -1 16 -13 8 -12 22 -22 30 -22 8 0 14 -5 14 -10 0 -6 8 -14 18 -17
18 -7 93 -64 128 -97 12 -12 43 -37 68 -56 26 -19 59 -46 74 -58 15 -13 49
-43 76 -65 81 -69 135 -118 220 -199 44 -43 84 -78 88 -78 4 0 8 -8 8 -17 0
-9 3 -14 6 -10 8 7 134 -121 134 -136 0 -6 3 -8 6 -4 4 3 22 -13 41 -36 47
-56 68 -79 135 -148 32 -33 61 -65 65 -72 5 -7 36 -34 70 -61 34 -26 64 -54
67 -62 3 -8 12 -14 20 -14 8 0 19 -6 23 -13 10 -16 100 -73 131 -82 12 -3 22
-11 22 -16 0 -6 5 -7 10 -4 6 3 10 1 10 -5 0 -7 6 -10 13 -7 6 2 20 0 30 -5
21 -11 148 -18 162 -9 6 3 12 6 15 7 33 6 110 73 110 94 0 6 5 8 10 5 9 -6 14
8 11 28 0 4 4 7 11 7 6 0 8 3 5 7 -4 3 -1 13 5 21 7 7 14 23 15 35 2 12 7 24
12 27 10 6 11 13 18 110 7 110 -27 225 -96 320 -24 33 -121 131 -121 122 0 -2
-18 15 -39 37 -22 23 -45 41 -51 41 -6 0 -8 5 -5 10 3 6 -1 10 -10 10 -10 0
-32 15 -51 34 -19 19 -34 32 -34 29 0 -7 -113 89 -123 104 -4 7 -12 13 -17 13
-5 0 -22 12 -38 28 -39 35 -50 44 -89 67 -18 11 -33 22 -33 26 0 3 -20 19 -45
35 -25 15 -45 32 -45 36 0 4 -7 8 -15 8 -8 0 -15 5 -15 10 0 6 -8 14 -17 17
-9 4 -24 14 -33 22 -36 34 -75 65 -80 63 -3 -2 -34 19 -70 45 -36 27 -86 62
-112 78 -27 17 -48 36 -48 43 0 7 -4 10 -10 7 -9 -6 -81 41 -88 58 -2 4 -8 7
-12 7 -5 0 -35 19 -66 43 -31 23 -60 42 -63 42 -9 1 -55 27 -61 35 -6 9 -103
70 -142 89 -16 8 -28 18 -28 23 0 4 -6 8 -14 8 -7 0 -19 7 -26 15 -7 8 -16 12
-21 10 -4 -3 -12 3 -18 12 -6 10 -11 14 -11 10 0 -5 -12 1 -26 12 -15 12 -32
21 -38 21 -7 0 -21 8 -32 18 -10 9 -38 26 -61 37 -24 11 -43 23 -43 28 0 4 -5
7 -11 7 -6 0 -24 9 -40 21 -16 11 -29 17 -29 12 0 -4 -4 -3 -8 2 -4 6 -34 24
-67 40 -32 17 -68 38 -79 47 -10 10 -22 15 -27 13 -4 -3 -15 2 -23 11 -9 8
-16 12 -16 8 0 -3 -6 -2 -12 4 -25 19 -89 52 -103 52 -8 0 -15 4 -15 10 0 5
-12 13 -26 16 -33 8 -127 54 -134 65 -3 5 -15 10 -26 12 -12 1 -33 10 -47 20
-15 9 -31 17 -37 17 -6 0 -18 4 -28 9 -9 5 -33 16 -52 24 -19 8 -57 26 -85 39
-27 12 -53 22 -57 20 -4 -1 -8 3 -8 9 0 6 -6 9 -12 7 -7 -3 -42 10 -77 28 -36
18 -69 30 -73 28 -4 -3 -8 0 -8 6 0 6 -4 8 -10 5 -5 -3 -22 0 -37 8 -39 20
-115 50 -163 62 -3 1 -18 7 -33 13 -16 7 -33 12 -38 12 -5 0 -9 5 -9 11 0 6
-7 8 -16 5 -8 -3 -28 1 -45 9 -16 9 -31 15 -34 16 -2 0 -23 6 -45 14 -22 8
-40 12 -40 9 0 -2 -13 2 -30 11 -16 8 -31 15 -32 14 -9 -4 -79 15 -84 22 -3 5
-18 9 -35 9 -16 0 -29 4 -29 8 0 4 -11 9 -26 10 -14 1 -33 6 -42 10 -9 5 -24
8 -32 7 -8 0 -17 2 -20 6 -3 4 -18 9 -35 12 -16 3 -68 15 -115 27 -47 11 -100
23 -119 26 -19 2 -39 8 -45 11 -6 4 -24 8 -41 9 -16 1 -52 7 -80 13 -27 7 -61
13 -75 15 -14 1 -41 6 -60 9 -52 10 -97 17 -175 27 -38 6 -101 14 -140 20
-132 19 -290 31 -485 36 -107 3 -225 6 -263 8 -37 1 -68 1 -70 0z"/>
<path d="M23565 13688 c-55 -3 -147 -9 -205 -13 -58 -3 -122 -11 -144 -16 -21
-6 -52 -9 -70 -8 -17 1 -47 -1 -66 -4 -19 -4 -51 -9 -70 -11 -19 -3 -73 -12
-120 -20 -46 -8 -86 -13 -88 -11 -2 2 -21 -2 -41 -10 -20 -8 -45 -13 -56 -11
-11 2 -24 0 -30 -4 -5 -4 -26 -10 -45 -13 -19 -4 -53 -11 -75 -17 -55 -14
-124 -30 -158 -35 -15 -3 -35 -9 -45 -13 -9 -5 -22 -7 -29 -5 -6 2 -14 -1 -18
-6 -3 -6 -19 -11 -34 -11 -15 0 -31 -4 -36 -9 -6 -5 -23 -12 -40 -15 -44 -7
-106 -25 -140 -41 -16 -7 -47 -16 -67 -20 -21 -4 -38 -11 -38 -16 0 -4 -9 -6
-19 -4 -11 2 -25 -3 -32 -11 -6 -8 -17 -14 -24 -14 -17 0 -119 -32 -125 -40
-3 -3 -44 -19 -92 -35 -49 -16 -88 -33 -88 -38 0 -4 -4 -6 -9 -2 -5 3 -31 -6
-57 -20 -26 -14 -49 -23 -52 -21 -2 3 -36 -12 -75 -32 -40 -20 -78 -37 -85
-38 -7 -1 -24 -9 -37 -18 -13 -9 -31 -16 -40 -16 -8 0 -15 -4 -15 -10 0 -5 -6
-10 -14 -10 -7 0 -43 -15 -80 -34 -36 -19 -66 -32 -66 -30 0 2 -16 -8 -36 -21
-20 -14 -43 -25 -50 -25 -7 0 -19 -6 -26 -12 -7 -7 -26 -19 -43 -27 -77 -34
-135 -67 -135 -75 0 -4 -7 -6 -15 -2 -8 3 -15 2 -15 -2 0 -4 -12 -13 -27 -20
-33 -15 -82 -42 -117 -66 -14 -9 -26 -14 -26 -11 0 3 -10 -3 -22 -15 -12 -11
-28 -20 -35 -20 -7 0 -13 -4 -13 -10 0 -5 -7 -10 -15 -10 -8 0 -15 -4 -15 -9
0 -5 -10 -13 -22 -17 -13 -4 -36 -17 -53 -29 -16 -12 -55 -35 -85 -51 -30 -16
-59 -35 -63 -42 -4 -6 -27 -22 -50 -33 -23 -12 -55 -33 -71 -46 -15 -13 -44
-30 -62 -38 -35 -14 -54 -28 -82 -57 -9 -10 -22 -18 -29 -18 -7 0 -13 -4 -13
-10 0 -5 -21 -22 -47 -37 -27 -15 -53 -32 -60 -38 -37 -31 -43 -35 -53 -35 -5
0 -10 -4 -10 -8 0 -5 -33 -31 -72 -59 -40 -28 -83 -59 -96 -69 -12 -11 -32
-27 -45 -36 -12 -10 -39 -33 -60 -50 -21 -18 -53 -41 -70 -50 -18 -10 -27 -18
-22 -18 6 0 -5 -10 -22 -21 -18 -12 -33 -25 -33 -30 0 -5 -5 -9 -10 -9 -6 0
-21 -10 -34 -22 -12 -13 -39 -36 -61 -53 -21 -16 -59 -49 -84 -72 -25 -23 -52
-43 -58 -43 -7 0 -13 -7 -13 -15 0 -8 -4 -15 -9 -15 -5 0 -28 -18 -50 -40 -22
-22 -42 -40 -45 -40 -6 0 -72 -58 -90 -78 -6 -7 -22 -23 -35 -35 -32 -28 -142
-140 -206 -207 l-50 -53 65 50 c36 27 73 53 83 56 9 4 17 11 17 17 0 6 5 8 10
5 6 -3 10 -2 10 2 0 11 105 93 119 93 5 0 15 8 20 18 6 9 11 13 11 7 0 -5 7 1
16 13 8 12 20 22 25 22 11 0 102 70 107 83 2 4 9 7 16 7 7 0 25 11 40 25 15
14 31 25 36 25 4 0 10 4 12 8 4 10 225 162 235 162 5 0 19 12 32 25 13 14 26
23 29 21 2 -3 10 0 18 7 33 29 49 42 54 42 11 1 70 40 70 47 0 4 6 8 14 8 8 0
16 4 18 8 4 10 105 72 118 72 6 0 10 4 10 9 0 5 14 14 30 21 17 7 30 16 30 21
0 5 6 9 13 9 7 0 23 9 34 19 12 11 24 17 27 14 3 -4 6 -1 6 5 0 7 7 12 15 12
8 0 15 5 15 10 0 6 6 10 14 10 8 0 16 3 18 8 2 4 21 16 43 27 22 11 42 23 45
26 3 3 37 23 75 44 39 21 73 43 77 49 5 7 8 7 8 1 0 -6 3 -5 8 1 4 6 19 17 34
25 14 8 75 41 135 74 59 33 126 68 148 78 22 10 47 23 55 27 8 5 40 21 70 36
30 15 67 36 81 46 14 9 29 15 33 11 3 -3 6 -1 6 5 0 7 11 12 25 12 14 0 25 4
25 9 0 5 16 15 35 22 19 7 35 17 35 21 0 4 9 8 19 8 11 0 23 5 26 10 4 6 11 8
16 5 5 -4 9 -2 9 3 0 5 13 12 29 15 16 3 36 13 45 22 9 9 16 14 16 10 0 -3 13
1 30 10 16 8 33 16 37 16 5 1 17 8 28 15 11 8 27 14 37 14 10 0 18 4 18 9 0 8
54 23 65 18 2 -1 10 7 18 17 9 12 20 17 31 13 10 -4 15 -3 11 3 -5 9 15 15 38
11 4 0 7 4 7 10 0 5 4 8 9 4 5 -3 16 1 24 9 8 8 17 13 20 10 3 -3 19 2 36 11
17 8 31 12 31 8 0 -5 4 -3 8 2 7 11 98 47 120 48 6 0 12 3 12 7 0 6 59 27 100
36 7 1 41 14 65 24 11 5 31 12 44 15 l23 7 -18 -32 c-11 -17 -27 -40 -37 -51
-10 -10 -14 -19 -10 -19 4 0 0 -5 -10 -11 -9 -6 -15 -14 -12 -20 4 -5 1 -9 -4
-9 -6 0 -11 -5 -11 -11 0 -6 -13 -30 -30 -53 -16 -24 -26 -46 -23 -50 4 -3 1
-6 -5 -6 -7 0 -12 -8 -12 -19 0 -10 -7 -24 -15 -31 -8 -7 -15 -18 -15 -26 0
-7 -6 -19 -13 -26 -7 -7 -13 -15 -13 -18 1 -10 -36 -106 -55 -142 -11 -21 -18
-42 -15 -47 3 -5 0 -14 -8 -20 -8 -7 -12 -20 -9 -30 3 -10 0 -22 -6 -25 -6 -4
-11 -18 -11 -31 0 -13 -4 -27 -10 -30 -5 -3 -10 -21 -10 -40 0 -19 -4 -36 -9
-39 -5 -4 -8 -14 -6 -24 1 -9 -2 -28 -7 -42 -5 -14 -11 -41 -13 -60 -2 -19 -8
-65 -14 -103 -11 -79 -11 -423 0 -500 4 -29 10 -71 13 -95 3 -24 8 -47 10 -51
3 -4 8 -23 11 -42 14 -77 50 -210 65 -238 6 -12 8 -21 4 -21 -3 0 1 -11 10
-25 9 -14 14 -25 11 -25 -3 0 1 -13 10 -30 8 -16 15 -38 15 -50 0 -11 7 -23
15 -26 8 -4 15 -11 15 -18 0 -6 8 -27 19 -46 10 -19 39 -75 65 -125 26 -49 65
-113 87 -142 22 -29 38 -53 35 -53 -3 0 8 -15 25 -32 16 -18 29 -38 29 -46 0
-7 5 -10 10 -7 6 3 10 1 10 -5 0 -11 23 -38 107 -125 23 -24 39 -46 36 -49 -4
-3 -1 -6 6 -6 7 0 34 -22 61 -49 27 -27 51 -47 54 -44 2 3 11 -4 18 -16 7 -12
17 -21 21 -21 5 0 14 -6 21 -12 36 -35 95 -80 101 -77 3 2 11 -4 16 -13 6 -10
16 -18 23 -18 8 0 17 -7 20 -16 3 -8 10 -13 15 -10 4 3 16 -3 26 -14 10 -11
24 -20 32 -20 7 0 13 -4 13 -10 0 -5 9 -10 19 -10 11 0 22 -4 25 -9 5 -7 128
-72 146 -76 3 -1 16 -6 30 -12 14 -6 59 -25 100 -41 41 -17 89 -36 105 -43 17
-7 34 -11 39 -10 4 1 29 -5 55 -13 25 -8 60 -17 76 -20 17 -2 45 -9 64 -15 19
-6 38 -8 42 -5 5 3 17 1 26 -5 27 -13 108 -21 298 -27 156 -5 308 6 445 32 14
2 43 7 65 10 22 4 45 10 50 14 6 5 24 11 40 13 57 11 77 16 89 25 11 9 85 27
99 24 4 -1 7 3 7 8 0 6 9 10 20 10 11 0 20 5 20 10 0 6 9 10 19 10 11 0 22 4
26 10 3 5 12 7 19 4 7 -3 19 2 26 11 7 8 20 15 30 15 10 0 23 7 30 15 7 8 17
15 22 15 5 0 36 16 69 35 32 19 59 31 59 27 0 -4 6 1 13 10 8 9 20 18 27 20
16 3 21 7 65 43 17 14 33 25 37 25 4 0 17 8 29 18 48 40 58 48 93 76 20 16 62
53 94 82 31 30 61 54 65 54 5 0 5 5 2 10 -3 6 1 10 9 10 9 0 16 4 16 8 0 4 26
37 58 73 31 36 66 78 77 93 11 15 32 41 48 58 15 18 27 38 27 45 0 7 5 13 10
13 6 0 10 7 10 15 0 8 4 15 9 15 4 0 19 20 32 45 13 25 27 45 31 45 5 0 8 5 8
10 0 6 11 28 25 49 13 22 27 51 31 65 3 14 12 30 19 36 8 6 12 17 9 24 -3 7 2
19 11 26 8 7 15 20 15 29 1 9 9 34 20 56 11 22 19 48 20 58 0 9 5 17 10 17 6
0 10 12 10 28 0 15 9 47 20 71 11 24 18 46 16 49 -3 2 -1 12 4 22 5 9 11 36
14 60 3 24 9 46 14 49 4 3 9 22 9 41 1 19 8 92 15 161 14 132 16 322 4 449 -4
41 -9 76 -11 79 -1 4 -6 28 -9 55 -4 27 -10 54 -13 60 -4 5 -8 22 -9 36 -1 14
-6 36 -12 50 -5 14 -8 29 -5 33 3 4 -1 15 -8 23 -6 8 -9 17 -6 21 4 3 2 12 -4
20 -6 7 -9 13 -5 13 7 0 -19 72 -39 110 -7 14 -14 28 -14 32 -4 22 -26 80 -48
123 -23 45 -93 177 -101 189 -6 10 -7 14 -11 34 0 4 -13 20 -27 37 -14 16 -35
45 -47 65 -12 19 -27 41 -34 48 -18 19 -16 25 5 17 9 -4 24 -8 32 -10 9 -2 40
-14 70 -28 30 -14 71 -32 90 -40 98 -42 157 -69 180 -83 14 -8 42 -22 63 -30
20 -9 37 -20 37 -25 0 -5 7 -9 15 -9 8 0 15 -5 15 -11 0 -6 6 -9 13 -6 6 2 25
-5 40 -16 16 -10 48 -30 71 -42 69 -37 176 -108 176 -117 0 -4 3 -7 8 -7 19 3
33 -2 27 -11 -3 -5 3 -10 14 -10 10 0 21 -4 23 -8 4 -11 113 -92 122 -92 4 0
13 -6 20 -12 35 -34 65 -56 69 -51 3 3 12 -4 19 -16 7 -12 18 -21 25 -21 7 0
18 -9 25 -20 7 -11 17 -20 23 -20 5 0 26 -15 46 -33 20 -17 60 -52 90 -77 30
-24 95 -85 145 -135 49 -49 104 -101 122 -115 17 -14 32 -28 32 -32 0 -3 28
-35 63 -70 34 -35 95 -102 135 -148 40 -47 85 -98 100 -115 16 -16 31 -38 35
-47 4 -10 11 -18 17 -18 5 0 10 -6 10 -14 0 -8 11 -23 25 -34 14 -11 25 -25
25 -31 0 -5 9 -19 20 -29 27 -25 93 -153 120 -232 18 -52 23 -92 25 -200 4
-162 -10 -232 -71 -353 -8 -16 -14 -34 -14 -41 0 -7 -9 -22 -20 -34 -12 -12
-19 -22 -16 -22 8 0 -37 -49 -114 -126 -118 -118 -141 -139 -151 -139 -5 0
-19 -10 -31 -22 -52 -50 -89 -83 -96 -83 -4 0 -36 -27 -72 -60 -36 -33 -69
-60 -73 -60 -5 0 -14 -6 -21 -12 -8 -7 -24 -20 -36 -28 -13 -8 -32 -23 -42
-32 -10 -10 -21 -18 -25 -18 -7 0 -23 -12 -79 -59 -6 -5 -25 -16 -42 -25 -18
-9 -32 -21 -32 -27 0 -6 -4 -8 -9 -4 -5 3 -12 1 -16 -4 -6 -11 -93 -71 -101
-71 -3 0 -14 -9 -26 -20 -12 -10 -25 -17 -30 -14 -4 3 -11 -2 -14 -10 -3 -9
-10 -13 -15 -10 -5 3 -9 1 -9 -4 0 -5 -25 -21 -55 -36 -30 -16 -59 -34 -66
-42 -6 -8 -15 -11 -20 -8 -5 3 -9 0 -9 -5 0 -6 -6 -11 -14 -11 -7 0 -25 -9
-40 -21 -14 -11 -26 -18 -26 -14 0 3 -12 -2 -27 -13 -44 -31 -110 -62 -117
-55 -3 4 -6 2 -6 -3 0 -6 -28 -23 -62 -39 -35 -16 -70 -35 -79 -42 -8 -7 -24
-14 -36 -16 -11 -1 -32 -10 -46 -20 -15 -9 -28 -17 -31 -17 -3 0 -17 -5 -33
-12 -15 -6 -30 -12 -33 -13 -3 0 -27 -11 -55 -24 -85 -39 -109 -49 -135 -56
-14 -3 -34 -10 -45 -14 -11 -5 -33 -14 -48 -20 -16 -6 -33 -9 -38 -6 -5 4 -9
1 -9 -4 0 -6 -8 -11 -18 -11 -10 0 -23 -5 -29 -11 -6 -6 -17 -12 -24 -13 -39
-8 -75 -20 -86 -29 -7 -5 -13 -7 -13 -4 0 3 -26 -3 -57 -14 -32 -11 -69 -22
-83 -24 -14 -2 -37 -8 -51 -14 -15 -5 -30 -7 -33 -4 -3 4 -6 0 -6 -7 0 -7 -3
-11 -6 -7 -3 3 -27 -1 -52 -8 -25 -8 -48 -12 -50 -10 -3 2 -13 0 -24 -6 -20
-11 -27 -13 -123 -30 -33 -6 -82 -15 -110 -20 -27 -6 -63 -12 -80 -14 -16 -2
-41 -8 -55 -13 -14 -5 -28 -10 -33 -10 -20 0 -154 -15 -172 -18 -11 -3 -45 -7
-75 -9 -30 -3 -73 -8 -95 -11 -187 -25 -1024 -24 -1065 1 -6 4 -32 7 -58 7
-26 0 -123 11 -217 25 -93 13 -186 26 -205 28 -36 4 -130 19 -165 28 -41 10
-110 21 -118 19 -5 -1 -23 4 -40 12 -18 7 -79 23 -137 35 -128 25 -141 28
-210 48 -30 9 -62 16 -70 16 -8 0 -19 3 -25 7 -8 6 -49 18 -85 25 -5 1 -103
30 -160 48 -19 6 -37 12 -40 12 -41 10 -121 38 -125 45 -3 5 -12 7 -20 3 -9
-3 -21 -1 -28 5 -6 5 -56 24 -109 41 -54 18 -100 36 -103 41 -3 4 -21 11 -40
14 -19 4 -35 12 -35 17 0 6 -6 9 -12 7 -7 -3 -24 1 -37 8 -14 7 -28 11 -33 8
-4 -3 -8 0 -8 5 0 6 -3 10 -7 9 -8 -1 -29 6 -78 27 -16 8 -42 17 -58 20 -15 4
-30 11 -33 16 -3 5 -14 9 -25 9 -10 0 -19 5 -19 10 0 6 -9 10 -19 10 -11 0
-23 5 -26 10 -3 6 -15 10 -26 10 -11 0 -17 4 -14 10 3 6 -1 7 -9 4 -9 -3 -16
-1 -16 5 0 6 -3 10 -7 9 -13 -3 -83 25 -83 34 0 4 -3 7 -7 6 -12 -4 -76 23
-97 41 -16 13 -18 14 -12 1 6 -12 5 -12 -6 1 -7 9 -19 14 -25 12 -7 -3 -13 0
-13 6 0 6 -3 10 -7 9 -13 -3 -63 25 -63 34 0 5 -4 7 -9 3 -10 -6 -94 34 -99
47 -2 4 -9 8 -15 8 -16 0 -101 42 -109 54 -4 6 -8 7 -8 3 0 -5 -13 1 -28 12
-16 11 -40 23 -55 26 -15 4 -27 10 -27 14 0 3 -29 19 -64 36 -36 16 -62 34
-59 39 3 5 2 6 -4 3 -5 -3 -26 5 -46 19 -20 14 -37 22 -37 19 0 -4 -12 3 -26
14 -15 12 -33 21 -40 21 -8 0 -14 5 -14 10 0 6 -7 10 -15 10 -8 0 -15 5 -15
10 0 6 -6 10 -14 10 -7 0 -25 9 -40 21 -14 11 -26 18 -26 15 0 -3 -38 19 -85
49 -47 30 -85 53 -85 50 0 -7 -118 74 -126 86 -3 5 -10 7 -15 4 -5 -4 -12 1
-15 9 -3 9 -10 16 -15 16 -7 0 -29 13 -99 60 -8 6 -27 18 -42 28 -49 32 -193
131 -220 153 -16 11 -28 18 -28 14 0 -9 15 -23 85 -79 33 -27 63 -54 67 -60 4
-6 11 -11 16 -11 4 0 19 -11 34 -25 14 -14 35 -32 47 -40 49 -33 128 -94 164
-126 20 -19 41 -34 45 -34 5 0 18 -8 30 -18 11 -10 33 -27 47 -38 15 -10 47
-34 70 -51 24 -18 48 -33 54 -33 6 0 15 -9 21 -20 6 -11 20 -20 30 -20 11 0
20 -4 20 -10 0 -5 5 -10 10 -10 10 0 22 -8 55 -37 7 -7 16 -13 19 -13 2 0 47
-28 98 -63 51 -34 105 -68 121 -76 15 -8 27 -18 27 -23 0 -4 6 -8 14 -8 8 0
16 -3 18 -7 2 -5 21 -17 43 -28 22 -11 59 -32 81 -47 23 -16 47 -28 53 -28 6
0 11 -4 11 -10 0 -5 7 -10 15 -10 9 0 43 -18 76 -40 33 -22 65 -40 70 -40 5 0
9 -4 9 -10 0 -5 5 -10 12 -10 20 0 148 -62 148 -72 0 -5 5 -6 10 -3 6 3 10 2
10 -4 0 -6 17 -15 39 -21 21 -5 44 -17 51 -25 7 -8 17 -15 22 -15 6 0 40 -14
77 -31 36 -18 98 -47 136 -65 39 -18 77 -34 85 -36 8 -2 39 -15 69 -30 31 -16
63 -28 72 -28 8 0 19 -3 23 -7 4 -5 11 -8 14 -8 4 -1 17 -6 30 -13 12 -7 22
-10 22 -7 0 3 10 -1 23 -9 24 -15 89 -37 98 -33 3 1 14 -5 23 -13 10 -8 23
-15 30 -17 58 -13 176 -53 186 -63 5 -5 15 -8 50 -15 8 -2 15 -4 15 -6 0 -1 9
-3 20 -4 11 -1 53 -14 93 -28 41 -15 77 -26 80 -25 4 1 34 -6 67 -15 131 -39
163 -47 184 -47 12 0 31 -5 41 -10 10 -6 32 -11 47 -12 15 -1 33 -5 38 -9 6
-4 37 -12 70 -18 33 -6 71 -13 85 -16 14 -3 41 -8 60 -11 19 -3 44 -8 55 -11
11 -4 31 -8 45 -9 14 -1 57 -7 95 -13 76 -12 194 -28 265 -36 25 -2 59 -7 76
-9 171 -25 892 -42 1044 -24 36 4 106 10 155 13 50 3 101 7 115 10 14 2 52 7
85 10 94 9 147 15 180 22 17 3 51 7 76 8 25 2 55 7 66 13 10 6 28 9 39 8 10
-2 30 1 44 6 13 5 44 11 69 14 25 2 73 11 106 19 33 7 80 17 105 20 25 3 56
10 70 15 14 5 36 11 50 13 14 2 32 7 40 10 22 8 149 38 176 41 13 1 29 8 37
15 8 6 19 11 23 10 9 -2 52 7 94 21 14 4 45 14 70 21 25 7 51 17 58 22 6 5 12
7 12 3 0 -3 16 0 35 8 20 9 36 15 38 15 1 0 11 3 22 6 11 4 31 11 45 15 14 5
39 12 55 16 36 9 34 8 65 21 14 6 27 11 30 11 7 0 90 32 129 49 18 8 39 16 45
18 40 8 66 18 66 26 0 5 6 9 13 9 7 0 37 11 65 25 29 14 61 25 72 25 11 0 20
4 20 9 0 8 32 22 55 25 6 1 13 5 16 9 3 5 12 9 20 11 8 1 40 14 71 29 31 15
62 27 67 27 6 0 11 5 11 10 0 6 4 10 10 10 5 0 38 13 72 29 35 16 78 35 96 42
17 8 32 17 32 21 0 5 8 8 18 8 11 0 27 9 37 20 10 12 25 18 32 15 8 -2 12 -1
9 3 -5 8 60 45 68 39 1 -1 10 4 19 11 9 8 31 21 49 31 56 29 83 46 90 56 4 6
8 6 8 1 0 -4 15 3 33 16 17 14 37 27 42 29 22 9 190 122 193 130 2 5 10 9 18
9 8 0 24 11 36 25 12 14 28 25 35 25 7 0 13 5 13 10 0 6 5 10 11 10 15 0 89
74 89 89 0 6 3 11 8 11 7 0 41 54 41 65 0 3 14 20 31 38 16 17 30 36 30 40 0
4 21 17 46 28 75 34 102 23 205 -83 49 -50 89 -96 89 -101 0 -6 3 -8 6 -4 3 3
18 -7 33 -22 14 -15 37 -33 51 -39 50 -25 70 -39 65 -45 -3 -4 -2 -5 1 -2 4 2
21 -2 39 -9 21 -9 67 -13 128 -12 94 1 98 2 191 50 53 27 96 54 96 59 0 6 3 8
6 5 3 -4 14 1 24 10 10 9 25 22 32 29 33 29 58 63 79 106 13 26 27 47 32 47 4
0 6 4 3 9 -4 5 -1 22 5 37 25 69 14 267 -21 359 -5 14 -12 36 -14 49 -4 21
-15 48 -64 156 -9 19 -18 37 -21 40 -11 10 -76 144 -74 152 2 4 -1 8 -7 8 -8
0 -37 46 -42 67 -1 5 -12 19 -25 33 -13 14 -23 29 -23 33 0 8 -53 78 -97 126
-12 14 -19 29 -16 34 3 6 1 7 -5 3 -7 -4 -17 3 -23 18 -7 14 -16 23 -20 20 -5
-3 -9 2 -9 11 0 9 -4 13 -10 10 -5 -3 -10 -1 -10 5 0 6 -20 31 -45 56 -25 24
-45 49 -45 55 0 6 -4 7 -10 4 -5 -3 -10 -1 -10 5 0 6 -15 25 -32 43 -18 17
-32 35 -31 39 2 4 -1 7 -6 5 -5 -1 -78 68 -163 153 -85 86 -166 165 -180 176
-38 30 -164 142 -214 192 -24 23 -48 42 -53 42 -5 0 -23 16 -40 35 -17 19 -34
35 -39 35 -5 0 -29 18 -53 40 -65 58 -67 60 -79 60 -6 0 -13 7 -16 15 -3 8
-28 28 -55 46 -27 17 -49 35 -49 40 0 5 -6 9 -14 9 -13 0 -39 19 -89 65 -27
25 -75 56 -81 53 -2 -2 -15 6 -28 18 -30 27 -184 134 -193 134 -3 0 -41 25
-84 55 -43 30 -81 51 -85 48 -3 -4 -6 -1 -6 6 0 7 -4 10 -9 7 -5 -3 -14 1 -21
9 -7 9 -29 23 -49 32 -20 9 -43 22 -51 29 -14 11 -73 44 -185 103 -27 14 -52
29 -53 33 -2 5 -8 6 -13 3 -5 -4 -25 6 -44 21 -20 15 -38 24 -42 21 -3 -4 -18
2 -32 12 -33 23 -62 35 -78 32 -7 -1 -13 3 -13 9 0 5 -7 10 -15 10 -9 0 -26 7
-39 15 -13 9 -32 17 -42 19 -32 7 -72 24 -78 34 -3 5 -22 13 -41 16 -19 4 -35
11 -35 16 0 6 -11 10 -25 10 -14 0 -25 5 -25 12 0 6 -3 9 -6 5 -4 -3 -23 2
-43 12 -20 11 -38 18 -41 18 -15 -3 -100 27 -100 35 0 5 -8 7 -19 3 -10 -3
-23 1 -30 9 -7 8 -19 12 -27 9 -8 -3 -20 -1 -27 4 -6 5 -32 15 -57 22 -25 8
-52 16 -60 19 -8 3 -24 7 -35 9 -11 2 -27 6 -35 10 -8 3 -22 7 -30 9 -77 16
-113 25 -123 31 -6 4 -20 8 -32 10 -30 4 -63 11 -135 27 -36 9 -81 18 -100 21
-19 3 -60 10 -90 15 -30 5 -73 12 -95 15 -22 3 -47 7 -55 10 -8 2 -48 7 -88
10 -41 3 -77 7 -81 9 -29 18 -555 36 -726 24z m197 -1144 c23 -9 52 -17 63
-18 86 -11 282 -153 367 -266 50 -67 106 -174 115 -223 3 -17 9 -36 13 -42 33
-44 31 -319 -4 -420 -1 -5 -7 -23 -11 -39 -19 -70 -93 -190 -165 -269 -97
-106 -258 -203 -366 -220 -10 -1 -25 -6 -32 -10 -21 -14 -223 -19 -287 -9
-134 23 -195 47 -310 121 -222 145 -349 385 -344 654 1 97 10 163 27 207 7 20
7 21 17 55 10 37 65 138 96 179 86 111 251 246 302 246 9 0 17 3 17 8 0 15 98
48 185 62 81 12 263 3 317 -16z m-1822 -591 c30 -3 71 -7 90 -8 33 -2 166 -14
235 -21 17 -2 88 -8 159 -14 71 -6 133 -13 138 -16 4 -3 8 -40 8 -82 0 -42 7
-115 16 -162 8 -47 16 -94 18 -106 2 -11 18 -54 35 -95 17 -40 31 -77 31 -81
0 -4 -71 -42 -157 -84 -87 -42 -222 -107 -300 -146 -78 -38 -146 -71 -150 -71
-4 -1 -37 -17 -73 -34 l-65 -33 -27 58 c-15 31 -28 64 -28 72 0 9 -4 20 -9 25
-10 12 -43 106 -64 185 -14 52 -23 99 -46 235 -11 62 -14 372 -5 387 6 9 69 6
194 -9z"/>
</g>
</svg>
